<svg width="48" height="48" viewBox="0 0 48 48" fill="none" xmlns="http://www.w3.org/2000/svg">
    <g>
        <circle cx="24" cy="30" r="12" stroke="currentColor" stroke-width="2"/>
        <path d="M15 21.99C17.66 19.33 17 3.99 24 3.99C31 3.99 30 20 33 21.99" stroke="currentColor" stroke-width="2"/>
        <path d="M18 20C21.23 17.53 21.36 12.1 22.3 7.97C22.67 6.36 23.15 4.96 24 4" stroke="currentColor" stroke-width="2"/>
        <path d="M30 20C26.76 17.53 26.63 12.1 25.69 7.97C25.32 6.36 24.84 4.96 24 4" stroke="currentColor" stroke-width="2" stroke-linecap="round"/>
        <path d="M14 24L34 24" stroke="currentColor" stroke-width="2" stroke-linecap="square"/>
        <path d="M14 36L34 36" stroke="currentColor" stroke-width="2" stroke-linecap="square"/>
        <path d="M14 30L34 30" stroke="currentColor" stroke-width="2" stroke-linecap="square"/>
        <line x1="18" y1="20" x2="18" y2="40" stroke="currentColor" stroke-width="2"/>
        <line x1="30" y1="20" x2="30" y2="40" stroke="currentColor" stroke-width="2"/>
        <line x1="24" y1="18" x2="24" y2="42" stroke="currentColor" stroke-width="2"/>
    </g>
</svg>
