<svg width="49" height="48" viewBox="0 0 49 48" fill="none" xmlns="http://www.w3.org/2000/svg">
<rect width="48" height="48" transform="translate(0.78949)" fill="none"/>
<path d="M23.6554 19.8362L22.3898 18.4322L18.5734 13.4887L17.2684 12.3616L18 11.5706L15.9435 8.86158L19.048 6.64689L20.9463 5.81638L23.4972 4.9661L23.8927 2L21.8757 2.83051L19.5226 4.07627L14.8164 7.63559L12.0085 9.96893L8.44915 13.4887L6.70904 14.6751L4 15.8616C5.58192 19.8955 9.629 21.629 11.4548 21.9915L12.404 18.1158L13.3531 15.8616L14.6186 17.1469L15.3107 17.661L16.2203 18.4322L18.3362 20.0537L20.9859 22.0904L22.0339 23.0593L23.2599 24.1469L25.8107 26.4605L28.4605 28.9322L31.3672 31.6412L37.6554 37.613L44.2994 43.8023L46 41.548L34.1356 30.2373L30.9322 27.1352M23.6554 19.8362L27.2542 23.5734L30.9322 27.1352M23.6554 19.8362L23.7542 18.7881L24.8418 19.2034L25.4746 18.6893L25.9294 16.6723L27.0565 17.0876L27.452 16.6723L28.0056 14.6356L29.0141 14.9915L29.6073 14.339L30.161 12.4605L31.1299 12.8164L31.7825 12.3023L32.2966 10.4435L33.3446 10.7203L33.7994 10.3644L34.4124 8.24859L35.3814 8.64407L35.9548 8.14972L36.548 6.11299L37.952 6.82486L40.1864 5.02542L40.5028 6.46893H43.5085L43.4492 8.20904L45.6836 9.59322L44.596 10.1864L44.9717 13.4294H44.0424L42.8559 16.178H41.7881L41.0169 16.8305L40.6215 18.3729L39.5734 18.3136L39.0198 18.8475L38.6836 20.4294H37.4576L36.8249 21.0424L36.4294 22.6638H35.322L34.8277 23.1384L34.3136 24.7203L33.404 24.6412L32.9096 25.0367L32.2571 26.8559L31.2684 26.7175L30.9322 27.1352" stroke="black" stroke-width="0.8"/>
<path d="M18.7713 23.4154L25.8504 30.1583C26.4198 31.5662 25.9954 32.3664 25.7119 32.5905C21.9417 36.4662 14.2193 44.3442 13.4916 44.8504C12.582 45.4832 10.921 45.3052 10.2684 44.6131C9.61589 43.921 9.43792 43.4267 9.43792 42.5764C9.43792 41.8962 9.9916 41.1065 10.2684 40.7967L10.565 38.5623L11.0594 34.7459C11.178 33.9549 11.178 33.5001 10.9407 33.3024C9.06498 31.7392 9.6884 30.5867 10.3871 29.9606L14.6385 25.5905C14.5462 25.518 14.1797 25.286 13.452 24.938C12.7244 24.5899 11.791 24.9248 11.4153 25.1357L7.85861 28.6159C7.8123 28.6757 7.69781 28.7346 7.63849 28.7543C6.67352 28.786 6.70911 28.0425 6.88708 27.7261C7.97465 26.5594 10.2763 24.1549 10.7826 23.8702C11.2888 23.5854 12.1799 23.4483 12.5622 23.4154C14.0492 23.3363 15.1988 24.2393 15.5876 24.7007L16.7741 23.5142C17.66 22.9922 18.4747 23.2308 18.7713 23.4154Z" stroke="black" stroke-width="0.8"/>
<path d="M24.5452 20.7853L37.5367 7.81358C38.4067 7.27309 40.6135 6.54805 42.4802 7.97178C43.225 8.51886 44.7542 10.7204 43.3503 13.1921L42.5791 14.1413L30.2005 26.4407" stroke="black" stroke-width="0.7"/>
<circle cx="40.0678" cy="10.9379" r="1.61808" stroke="black" stroke-width="0.6"/>
<path d="M11.6429 42.1529L16.9583 36.8375C17.2248 36.571 17.661 36.5854 17.9095 36.8688C18.1358 37.127 18.123 37.5166 17.8802 37.7594L12.5648 43.0748C12.2983 43.3413 11.8621 43.3269 11.6136 43.0435C11.3873 42.7853 11.4001 42.3957 11.6429 42.1529Z" stroke="black" stroke-width="0.7"/>
<path d="M16.0051 28.2894L18.4522 25.8423C18.5 25.7945 18.5783 25.7968 18.6231 25.8474C18.6644 25.8939 18.6622 25.9644 18.6183 26.0084L16.1712 28.4554C16.1234 28.5033 16.0452 28.5009 16.0003 28.4503C15.9591 28.4038 15.9612 28.3333 16.0051 28.2894ZM18.4837 30.6311L20.9308 28.184C20.9786 28.1362 21.0569 28.1386 21.1017 28.1892C21.1429 28.2357 21.1408 28.3062 21.0969 28.3501L18.6498 30.7972C18.602 30.845 18.5238 30.8427 18.4789 30.7921C18.4377 30.7456 18.4398 30.675 18.4837 30.6311ZM20.7988 33.0782L23.2459 30.6311C23.2937 30.5833 23.372 30.5856 23.4168 30.6362C23.458 30.6827 23.4559 30.7533 23.412 30.7972L20.9649 33.2443C20.9171 33.2921 20.8389 33.2897 20.794 33.2391C20.7528 33.1926 20.7549 33.1221 20.7988 33.0782Z" stroke="black" stroke-width="0.8"/>
</svg>
